<svg width="89" height="28" viewBox="0 0 89 28" fill="none" xmlns="http://www.w3.org/2000/svg">
<path fill-rule="evenodd" clip-rule="evenodd" d="M77.406 28C79.5093 28.0019 81.5659 27.3801 83.3159 26.2132C85.0658 25.0463 86.4304 23.3866 87.237 21.4442C88.0437 19.5017 88.2563 17.3637 87.8479 15.3004C87.4394 13.2371 86.4283 11.3413 84.9424 9.85266C83.4565 8.36403 81.5626 7.34945 79.5001 6.93721C77.4375 6.52498 75.2991 6.73361 73.3552 7.53673C71.4112 8.33984 69.7491 9.70136 68.5789 11.4491C67.4088 13.1969 66.7832 15.2524 66.7813 17.3557C66.78 18.7522 67.0538 20.1354 67.587 21.4261C68.1203 22.7168 68.9025 23.8899 69.8891 24.8783C70.8757 25.8667 72.0473 26.6511 73.3371 27.1867C74.6268 27.7224 76.0094 27.9987 77.406 28ZM77.406 23.6366C78.6463 23.6385 79.8593 23.2726 80.8917 22.5852C81.924 21.8977 82.7294 20.9195 83.2058 19.7744C83.6822 18.6292 83.8084 17.3685 83.5683 16.1516C83.3282 14.9348 82.7327 13.8164 81.857 12.938C80.9814 12.0596 79.8649 11.4606 78.6488 11.2168C77.4327 10.9729 76.1716 11.0951 75.0249 11.568C73.8783 12.0408 72.8976 12.8431 72.207 13.8733C71.5163 14.9035 71.1466 16.1154 71.1446 17.3557C71.1434 18.1792 71.3043 18.995 71.6182 19.7563C71.9322 20.5176 72.3931 21.2097 72.9745 21.7929C73.5559 22.3762 74.2465 22.8392 75.0069 23.1555C75.7672 23.4719 76.5825 23.6353 77.406 23.6366Z" fill="#888888"/>
<path fill-rule="evenodd" clip-rule="evenodd" d="M54.875 28C56.9783 28.0019 59.0349 27.3801 60.7849 26.2132C62.5348 25.0463 63.8993 23.3866 64.706 21.4442C65.5127 19.5017 65.7253 17.3637 65.3169 15.3004C64.9084 13.2371 63.8973 11.3413 62.4114 9.85266C60.9255 8.36403 59.0316 7.34945 56.9691 6.93721C54.9065 6.52498 52.7681 6.73361 50.8242 7.53673C48.8802 8.33984 47.2181 9.70136 46.0479 11.4491C44.8778 13.1969 44.2522 15.2524 44.2502 17.3557C44.2477 20.1745 45.3642 22.8789 47.3546 24.8748C49.3451 26.8708 52.0465 27.9948 54.8652 28H54.875ZM54.875 23.6366C56.1153 23.6385 57.3283 23.2726 58.3607 22.5852C59.393 21.8977 60.1984 20.9195 60.6748 19.7744C61.1512 18.6292 61.2774 17.3685 61.0373 16.1516C60.7972 14.9348 60.2017 13.8164 59.326 12.938C58.4504 12.0596 57.3339 11.4606 56.1178 11.2168C54.9017 10.9729 53.6406 11.0951 52.4939 11.568C51.3473 12.0408 50.3666 12.8431 49.6759 13.8733C48.9853 14.9035 48.6156 16.1154 48.6136 17.3557C48.6123 18.1792 48.7733 18.995 49.0872 19.7563C49.4012 20.5176 49.8621 21.2097 50.4435 21.7929C51.0249 22.3762 51.7155 22.8392 52.4759 23.1555C53.2362 23.4719 54.0514 23.6353 54.875 23.6366Z" fill="#888888"/>
<path fill-rule="evenodd" clip-rule="evenodd" d="M43.2914 17.2872V17.3655C43.2913 19.7602 42.4824 22.0846 40.9956 23.9619C39.5088 25.8391 37.4315 27.1591 35.1005 27.7076C32.7695 28.2562 30.3215 28.0012 28.1536 26.984C25.9857 25.9669 24.225 24.2471 23.157 22.1038C22.089 19.9604 21.7764 17.5191 22.2699 15.1759C22.7634 12.8326 24.0341 10.7247 25.8758 9.19416C27.7175 7.66359 30.0223 6.80006 32.4163 6.74364C34.8103 6.68721 37.1532 7.44119 39.0649 8.8833V2.11321C39.0649 1.55275 39.2876 1.01525 39.6839 0.618944C40.0802 0.222641 40.6177 0 41.1782 0C41.7386 0 42.2761 0.222641 42.6724 0.618944C43.0687 1.01525 43.2914 1.55275 43.2914 2.11321V17.2872ZM32.6568 23.6366C33.8971 23.6424 35.1113 23.2803 36.1458 22.596C37.1803 21.9118 37.9886 20.9361 38.4686 19.7925C38.9486 18.6488 39.0787 17.3885 38.8424 16.1709C38.6061 14.9533 38.0141 13.8331 37.1412 12.952C36.2683 12.0709 35.1537 11.4684 33.9383 11.2207C32.723 10.973 31.4615 11.0913 30.3134 11.5606C29.1653 12.0299 28.1822 12.829 27.4882 13.8571C26.7943 14.8851 26.4209 16.0958 26.415 17.3361C26.4112 18.1597 26.5696 18.9759 26.8812 19.7382C27.1927 20.5006 27.6514 21.1941 28.231 21.7791C28.8107 22.3642 29.4998 22.8293 30.2592 23.148C31.0186 23.4668 31.8333 23.6328 32.6568 23.6366Z" fill="#888888"/>
<path fill-rule="evenodd" clip-rule="evenodd" d="M10.6345 27.9805C12.7378 27.9805 14.7939 27.3568 16.5427 26.1882C18.2916 25.0197 19.6546 23.3588 20.4595 21.4156C21.2644 19.4724 21.475 17.3342 21.0647 15.2713C20.6544 13.2084 19.6415 11.3135 18.1543 9.82621C16.667 8.33895 14.7721 7.32611 12.7092 6.91577C10.6463 6.50543 8.50807 6.71603 6.56487 7.52094C4.62166 8.32584 2.96078 9.68889 1.79224 11.4377C0.623704 13.1866 0 15.2426 0 17.346C0 20.1664 1.12042 22.8713 3.11478 24.8657C5.10914 26.8601 7.81407 27.9805 10.6345 27.9805ZM10.5367 23.6562C11.7787 23.6562 12.9927 23.2874 14.0248 22.5966C15.0569 21.9057 15.8606 20.924 16.3341 19.7758C16.8076 18.6276 16.9295 17.3647 16.6843 16.1472C16.4391 14.9296 15.838 13.8123 14.957 12.9369C14.0761 12.0614 12.955 11.4672 11.736 11.2297C10.5169 10.9922 9.25478 11.122 8.10959 11.6026C6.96439 12.0833 5.9877 12.8931 5.30335 13.9296C4.619 14.966 4.2578 16.1823 4.26555 17.4242C4.27589 19.0806 4.94115 20.6657 6.1161 21.8333C7.29105 23.0009 8.88024 23.6563 10.5367 23.6562Z" fill="#875A7B"/>
</svg>
