<svg width="50" height="50" viewBox="0 0 50 50" fill="none" xmlns="http://www.w3.org/2000/svg">
<path d="M9 13.125C9.04688 12.1875 9.375 11.3906 9.98438 10.7344C10.6406 10.125 11.4375 9.79688 12.375 9.75H19.125C20.0625 9.79688 20.8594 10.125 21.5156 10.7344C22.125 11.3906 22.4531 12.1875 22.5 13.125V19.875C22.4531 20.8125 22.125 21.6094 21.5156 22.2656C20.8594 22.875 20.0625 23.2031 19.125 23.25H12.375C11.4375 23.2031 10.6406 22.875 9.98438 22.2656C9.375 21.6094 9.04688 20.8125 9 19.875V13.125ZM11.25 13.125V19.875C11.2969 20.5781 11.6719 20.9531 12.375 21H19.125C19.8281 20.9531 20.2031 20.5781 20.25 19.875V13.125C20.2031 12.4219 19.8281 12.0469 19.125 12H12.375C11.6719 12.0469 11.2969 12.4219 11.25 13.125ZM9 31.125C9.04688 30.1875 9.375 29.3906 9.98438 28.7344C10.6406 28.125 11.4375 27.7969 12.375 27.75H19.125C20.0625 27.7969 20.8594 28.125 21.5156 28.7344C22.125 29.3906 22.4531 30.1875 22.5 31.125V37.875C22.4531 38.8125 22.125 39.6094 21.5156 40.2656C20.8594 40.875 20.0625 41.2031 19.125 41.25H12.375C11.4375 41.2031 10.6406 40.875 9.98438 40.2656C9.375 39.6094 9.04688 38.8125 9 37.875V31.125ZM11.25 31.125V37.875C11.2969 38.5781 11.6719 38.9531 12.375 39H19.125C19.8281 38.9531 20.2031 38.5781 20.25 37.875V31.125C20.2031 30.4219 19.8281 30.0469 19.125 30H12.375C11.6719 30.0469 11.2969 30.4219 11.25 31.125ZM37.125 9.75C38.0625 9.79688 38.8594 10.125 39.5156 10.7344C40.125 11.3906 40.4531 12.1875 40.5 13.125V19.875C40.4531 20.8125 40.125 21.6094 39.5156 22.2656C38.8594 22.875 38.0625 23.2031 37.125 23.25H30.375C29.4375 23.2031 28.6406 22.875 27.9844 22.2656C27.375 21.6094 27.0469 20.8125 27 19.875V13.125C27.0469 12.1875 27.375 11.3906 27.9844 10.7344C28.6406 10.125 29.4375 9.79688 30.375 9.75H37.125ZM37.125 12H30.375C29.6719 12.0469 29.2969 12.4219 29.25 13.125V19.875C29.2969 20.5781 29.6719 20.9531 30.375 21H37.125C37.8281 20.9531 38.2031 20.5781 38.25 19.875V13.125C38.2031 12.4219 37.8281 12.0469 37.125 12ZM27 31.125C27.0469 30.1875 27.375 29.3906 27.9844 28.7344C28.6406 28.125 29.4375 27.7969 30.375 27.75H37.125C38.0625 27.7969 38.8594 28.125 39.5156 28.7344C40.125 29.3906 40.4531 30.1875 40.5 31.125V37.875C40.4531 38.8125 40.125 39.6094 39.5156 40.2656C38.8594 40.875 38.0625 41.2031 37.125 41.25H30.375C29.4375 41.2031 28.6406 40.875 27.9844 40.2656C27.375 39.6094 27.0469 38.8125 27 37.875V31.125ZM29.25 31.125V37.875C29.2969 38.5781 29.6719 38.9531 30.375 39H37.125C37.8281 38.9531 38.2031 38.5781 38.25 37.875V31.125C38.2031 30.4219 37.8281 30.0469 37.125 30H30.375C29.6719 30.0469 29.2969 30.4219 29.25 31.125Z" fill="#A90083"/>
</svg>
