<svg width="50" height="50" viewBox="0 0 50 50" fill="none" xmlns="http://www.w3.org/2000/svg">
<path d="M18.8125 25.4297C18.8594 23.6953 19.4688 22.2422 20.6406 21.0703C21.8125 19.8984 23.2656 19.2891 25 19.2422C26.7344 19.2891 28.1875 19.8984 29.3594 21.0703C30.5312 22.2422 31.1406 23.6953 31.1875 25.4297C31.1406 27.2109 30.5312 28.6875 29.3594 29.8594C28.1875 31.0312 26.7344 31.6406 25 31.6875C23.2656 31.6406 21.8125 31.0312 20.6406 29.8594C19.4688 28.6875 18.8594 27.2109 18.8125 25.4297ZM25 21.4922C23.875 21.5391 22.9375 21.9375 22.1875 22.6875C21.4844 23.4375 21.1094 24.3516 21.0625 25.4297C21.1094 26.5547 21.4844 27.4922 22.1875 28.2422C22.9375 28.9922 23.875 29.3672 25 29.3672C26.125 29.3672 27.0625 28.9922 27.8125 28.2422C28.5156 27.4922 28.8906 26.5547 28.9375 25.4297C28.8906 24.3516 28.5156 23.4375 27.8125 22.6875C27.0625 21.9375 26.125 21.5391 25 21.4922ZM11.6406 23.7422L8.75781 21.1406C7.96094 20.2969 7.82031 19.3594 8.33594 18.3281L10.4453 14.6719C11.1016 13.6875 11.9922 13.3359 13.1172 13.6172L16.7734 14.8125C17.7109 14.0625 18.7422 13.4531 19.8672 12.9844L20.7109 9.25781C20.9922 8.17969 21.7188 7.59375 22.8906 7.5H27.1094C28.2812 7.59375 29.0312 8.17969 29.3594 9.25781L30.1328 12.9844C31.2109 13.4531 32.2422 14.0625 33.2266 14.8125L36.8828 13.6172C38.0078 13.3359 38.8984 13.6875 39.5547 14.6719L41.6641 18.3281C42.1797 19.3594 42.0391 20.2969 41.2422 21.1406L38.3594 23.7422C38.4531 24.3047 38.5 24.8672 38.5 25.4297C38.5 26.0859 38.4531 26.6953 38.3594 27.2578L41.2422 29.8594C42.0391 30.7031 42.1797 31.6406 41.6641 32.6719L39.5547 36.3281C38.8984 37.3125 38.0078 37.6641 36.8828 37.3828L33.2266 36.1875C32.2422 36.9375 31.2109 37.5469 30.1328 38.0156L29.3594 41.7422C29.0312 42.8203 28.2812 43.4062 27.1094 43.5H22.8906C21.7188 43.4062 20.9922 42.8203 20.7109 41.7422L19.8672 38.0156C18.7422 37.5469 17.7109 36.9375 16.7734 36.1875L13.1172 37.3828C11.9922 37.6641 11.1016 37.3125 10.4453 36.3281L8.33594 32.6719C7.82031 31.6406 7.96094 30.7031 8.75781 29.8594L11.6406 27.2578C11.5469 26.6953 11.5 26.0859 11.5 25.4297C11.5 24.8672 11.5469 24.3047 11.6406 23.7422ZM18.1094 16.5703L17.1953 17.3438L12.4141 15.7969L10.3047 19.4531L14.0312 22.8281L13.8203 24.0234C13.7734 24.4922 13.75 24.9609 13.75 25.4297C13.75 25.9922 13.7734 26.5078 13.8203 26.9766L14.0312 28.1719L10.3047 31.5469L12.4141 35.2031L17.1953 33.7266L18.1094 34.4297C18.9062 35.0391 19.7734 35.5078 20.7109 35.8359L21.8359 36.3281L22.8906 41.25H27.1094L28.2344 36.3281L29.2188 35.8359C30.2031 35.5078 31.0938 35.0391 31.8906 34.4297L32.8047 33.7266L37.5859 35.2031L39.6953 31.5469L35.9688 28.1719L36.1797 26.9766C36.2266 26.5078 36.25 26.0156 36.25 25.5C36.25 24.9844 36.2266 24.4922 36.1797 24.0234L35.9688 22.8281L39.6953 19.4531L37.5859 15.7969L32.8047 17.3438L31.8906 16.5703C31.0938 15.9609 30.2031 15.4687 29.2188 15.0938L28.2344 14.6719L27.1094 9.75H22.8906L21.8359 14.6719L20.7109 15.0938C19.7734 15.4687 18.9062 15.9609 18.1094 16.5703Z" fill="#A90083"/>
</svg>
