<svg width="50" height="50" viewBox="0 0 50 50" fill="none" xmlns="http://www.w3.org/2000/svg">
<path d="M26.125 17.5547C27.0625 17.6484 27.9766 17.8359 28.8672 18.1172C28.8672 18.1172 28.8906 18.1172 28.9375 18.1172C29.0312 18.1641 29.125 18.2109 29.2188 18.2578C29.875 18.4922 30.1328 18.9375 29.9922 19.5938C29.7578 20.25 29.3125 20.5078 28.6562 20.3672C28.4688 20.3203 28.3047 20.2734 28.1641 20.2266C27.9766 20.1797 27.7891 20.1328 27.6016 20.0859C27.2266 19.9453 26.875 19.875 26.5469 19.875C25.1406 19.6875 23.9688 19.8047 23.0312 20.2266C22.1875 20.6484 21.7422 21.0938 21.6953 21.5625C21.5547 22.2656 21.7891 22.7812 22.3984 23.1094C23.1484 23.5312 24.2266 23.9297 25.6328 24.3047V24.2344C25.7734 24.2812 25.9375 24.3281 26.125 24.375C27.3438 24.75 28.4453 25.2422 29.4297 25.8516C30.7891 26.8359 31.3516 28.1484 31.1172 29.7891C30.7422 31.3359 29.8516 32.3672 28.4453 32.8828C27.7422 33.1641 26.9688 33.3281 26.125 33.375V35.0625C26.0781 35.7656 25.7031 36.1406 25 36.1875C24.2969 36.1406 23.9219 35.7656 23.875 35.0625V33.2344C23.2188 33.0938 22.4688 32.9062 21.625 32.6719C21.4844 32.625 21.3438 32.5781 21.2031 32.5312C20.8281 32.4375 20.4531 32.3203 20.0781 32.1797C19.5156 31.9453 19.3047 31.4531 19.4453 30.7031C19.7266 30.1406 20.1953 29.9297 20.8516 30.0703C21.1328 30.1172 21.4375 30.2109 21.7656 30.3516C21.9062 30.3984 22.0703 30.4453 22.2578 30.4922C23.1016 30.7734 23.7578 30.9609 24.2266 31.0547C25.6328 31.2422 26.7578 31.1484 27.6016 30.7734C28.3516 30.4453 28.7734 29.9766 28.8672 29.3672C29.0078 28.6641 28.7734 28.1016 28.1641 27.6797C27.3203 27.1641 26.3828 26.7891 25.3516 26.5547C25.3047 26.5547 25.2812 26.5547 25.2812 26.5547C25.0938 26.5078 24.9297 26.4375 24.7891 26.3438C23.5234 26.1094 22.3281 25.6641 21.2031 25.0078C20.5938 24.6797 20.1016 24.1641 19.7266 23.4609C19.3984 22.8047 19.3047 22.0547 19.4453 21.2109C19.8203 19.7578 20.7344 18.75 22.1875 18.1875C22.7031 17.9531 23.2422 17.7891 23.8047 17.6953V15.9375C23.8984 15.2344 24.2734 14.8594 24.9297 14.8125C25.6797 14.8594 26.0781 15.2344 26.125 15.9375V17.5547ZM43 25.5C42.9531 28.875 42.1328 31.8984 40.5391 34.5703C38.9453 37.2891 36.7891 39.4453 34.0703 41.0391C31.3984 42.6328 28.375 43.4531 25 43.5C21.625 43.4531 18.6016 42.6328 15.9297 41.0391C13.2109 39.4453 11.0547 37.2891 9.46094 34.5703C7.86719 31.8984 7.04688 28.875 7 25.5C7.04688 22.125 7.86719 19.1016 9.46094 16.4297C11.0547 13.7109 13.2109 11.5547 15.9297 9.96094C18.6016 8.36719 21.625 7.54688 25 7.5C28.375 7.54688 31.3984 8.36719 34.0703 9.96094C36.7891 11.5547 38.9453 13.7109 40.5391 16.4297C42.1328 19.1016 42.9531 22.125 43 25.5ZM25 9.75C22.0469 9.79688 19.3984 10.5234 17.0547 11.9297C14.6641 13.2891 12.7891 15.1641 11.4297 17.5547C10.0234 19.8984 9.29688 22.5469 9.25 25.5C9.29688 28.4531 10.0234 31.1016 11.4297 33.4453C12.7891 35.8359 14.6641 37.7109 17.0547 39.0703C19.3984 40.4766 22.0469 41.2031 25 41.25C27.9531 41.2031 30.6016 40.4766 32.9453 39.0703C35.3359 37.7109 37.2109 35.8359 38.5703 33.4453C39.9766 31.1016 40.7031 28.4531 40.75 25.5C40.7031 22.5469 39.9766 19.8984 38.5703 17.5547C37.2109 15.1641 35.3359 13.2891 32.9453 11.9297C30.6016 10.5234 27.9531 9.79688 25 9.75Z" fill="#A90083"/>
</svg>
