<svg width="50" height="50" viewBox="0 0 50 50" fill="none" xmlns="http://www.w3.org/2000/svg">
<path d="M25 30C22.9375 29.9531 21.2031 29.25 19.7969 27.8906C18.4375 26.4844 17.7578 24.75 17.7578 22.6875C17.8047 20.625 18.5078 18.8906 19.8672 17.4844C21.2266 16.125 22.9375 15.4219 25 15.375C27.0156 15.4219 28.7266 16.125 30.1328 17.4844C31.4922 18.8906 32.1953 20.625 32.2422 22.6875C32.1953 24.75 31.4922 26.4844 30.1328 27.8906C28.7734 29.25 27.0625 29.9531 25 30ZM25 17.625C23.5469 17.6719 22.3516 18.1641 21.4141 19.1016C20.4766 20.0391 19.9844 21.2344 19.9375 22.6875C19.9844 24.1406 20.4766 25.3359 21.4141 26.2734C22.3516 27.2109 23.5469 27.7031 25 27.75C26.4062 27.7031 27.6016 27.2109 28.5859 26.2734C29.5234 25.3359 30.0156 24.1406 30.0625 22.6875C30.0156 21.2344 29.5234 20.0391 28.5859 19.1016C27.6016 18.1641 26.4062 17.6719 25 17.625ZM28.5156 32.25C31.3281 32.2969 33.6719 33.2109 35.5469 34.9922C37.4219 36.7734 38.4062 38.9766 38.5 41.6016C38.5 42.1641 38.3125 42.6094 37.9375 42.9375C37.5625 43.3125 37.0938 43.5 36.5312 43.5H13.4688C12.9062 43.5 12.4375 43.3125 12.0625 42.9375C11.6875 42.6094 11.5 42.1641 11.5 41.6016C11.5938 38.9766 12.5781 36.7734 14.4531 34.9922C16.3281 33.2109 18.6719 32.2969 21.4844 32.25H28.5156ZM13.75 41.25H36.1797C36.0391 39.3281 35.2656 37.7344 33.8594 36.4688C32.4062 35.2031 30.625 34.5469 28.5156 34.5H21.4141C19.3516 34.5469 17.5938 35.2031 16.1406 36.4688C14.7344 37.7344 13.9375 39.3281 13.75 41.25ZM38.5 18.75C36.9062 18.7031 35.5703 18.1641 34.4922 17.1328C33.4609 16.0547 32.9219 14.7188 32.875 13.125C32.9219 11.5312 33.4609 10.1953 34.4922 9.11719C35.5703 8.08594 36.9062 7.54688 38.5 7.5C40.0938 7.54688 41.4297 8.08594 42.5078 9.11719C43.5391 10.1953 44.0781 11.5312 44.125 13.125C44.0781 14.7188 43.5391 16.0547 42.5078 17.1328C41.4297 18.1641 40.0938 18.7031 38.5 18.75ZM38.5 9.75C37.5625 9.79688 36.7656 10.125 36.1094 10.7344C35.5 11.3906 35.1719 12.1875 35.125 13.125C35.1719 14.0625 35.5 14.8594 36.1094 15.5156C36.7656 16.125 37.5625 16.4531 38.5 16.5C39.4375 16.4531 40.2344 16.125 40.8906 15.5156C41.5 14.8594 41.8281 14.0625 41.875 13.125C41.8281 12.1875 41.5 11.3906 40.8906 10.7344C40.2344 10.125 39.4375 9.79688 38.5 9.75ZM11.5 18.75C9.90625 18.7031 8.57031 18.1641 7.49219 17.1328C6.46094 16.0547 5.92188 14.7188 5.875 13.125C5.92188 11.5312 6.46094 10.1953 7.49219 9.11719C8.57031 8.08594 9.90625 7.54688 11.5 7.5C13.0938 7.54688 14.4297 8.08594 15.5078 9.11719C16.5391 10.1953 17.0781 11.5312 17.125 13.125C17.0781 14.7188 16.5391 16.0547 15.5078 17.1328C14.4297 18.1641 13.0938 18.7031 11.5 18.75ZM11.5 9.75C10.5625 9.79688 9.76562 10.125 9.10938 10.7344C8.5 11.3906 8.17188 12.1875 8.125 13.125C8.17188 14.0625 8.5 14.8594 9.10938 15.5156C9.76562 16.125 10.5625 16.4531 11.5 16.5C12.4375 16.4531 13.2344 16.125 13.8906 15.5156C14.5 14.8594 14.8281 14.0625 14.875 13.125C14.8281 12.1875 14.5 11.3906 13.8906 10.7344C13.2344 10.125 12.4375 9.79688 11.5 9.75ZM41.9453 21C43.5391 21.0469 44.8516 21.6094 45.8828 22.6875C46.9141 23.8125 47.4531 25.1953 47.5 26.8359V27.75C47.4531 28.4531 47.0781 28.8281 46.375 28.875C45.6719 28.8281 45.2969 28.4531 45.25 27.75V26.8359C45.2031 25.8047 44.875 24.9609 44.2656 24.3047C43.6094 23.6484 42.8359 23.2969 41.9453 23.25H37.375C36.9062 23.25 36.4609 23.3438 36.0391 23.5312C35.3828 23.7656 34.8906 23.6016 34.5625 23.0391C34.3281 22.3828 34.5156 21.8672 35.125 21.4922C35.8281 21.1641 36.5781 21 37.375 21H41.9453ZM13.9609 23.5312C13.5391 23.3438 13.0938 23.25 12.625 23.25H8.05469C7.11719 23.2969 6.34375 23.6484 5.73438 24.3047C5.125 24.9609 4.79688 25.8047 4.75 26.8359V27.75C4.70312 28.4531 4.32812 28.8281 3.625 28.875C2.92188 28.8281 2.54688 28.4531 2.5 27.75V26.8359C2.54688 25.1953 3.08594 23.8125 4.11719 22.6875C5.14844 21.6094 6.46094 21.0469 8.05469 21H12.625C13.4219 21 14.1953 21.1641 14.9453 21.4922C15.5078 21.8672 15.6719 22.3828 15.4375 23.0391C15.1094 23.6016 14.6172 23.7656 13.9609 23.5312Z" fill="#A90083"/>
</svg>
