<svg width="346" height="110" viewBox="0 0 346 110" fill="none" xmlns="http://www.w3.org/2000/svg">
<path fill-rule="evenodd" clip-rule="evenodd" d="M303.848 110C312.093 110.008 320.155 107.565 327.014 102.98C333.873 98.396 339.222 91.876 342.385 84.2449C345.547 76.6138 346.38 68.2143 344.779 60.1086C343.178 52.0029 339.214 44.555 333.39 38.7068C327.565 32.8586 320.141 28.8728 312.057 27.2533C303.972 25.6338 295.589 26.4534 287.969 29.6085C280.349 32.7636 273.834 38.1124 269.247 44.9786C264.661 51.8449 262.208 59.92 262.201 68.183C262.196 73.6695 263.269 79.1032 265.359 84.1739C267.449 89.2446 270.516 93.8531 274.383 97.7361C278.25 101.619 282.843 104.701 287.899 106.805C292.954 108.909 298.374 109.995 303.848 110ZM303.848 92.8581C308.71 92.8657 313.465 91.4282 317.512 88.7274C321.558 86.0266 324.715 82.1838 326.583 77.685C328.45 73.1862 328.945 68.2333 328.004 63.4528C327.063 58.6723 324.728 54.2788 321.296 50.828C317.863 47.3771 313.487 45.0239 308.72 44.0658C303.953 43.1077 299.009 43.5879 294.515 45.4455C290.02 47.3032 286.176 50.4549 283.469 54.5022C280.761 58.5494 279.312 63.3104 279.305 68.183C279.3 71.4184 279.93 74.623 281.161 77.614C282.392 80.605 284.198 83.3237 286.477 85.615C288.756 87.9063 291.463 89.7253 294.444 90.968C297.424 92.2108 300.62 92.853 303.848 92.8581Z" fill="#888888"/>
<path fill-rule="evenodd" clip-rule="evenodd" d="M215.529 110C223.774 110.008 231.836 107.565 238.695 102.98C245.555 98.396 250.904 91.876 254.066 84.2449C257.228 76.6138 258.061 68.2143 256.46 60.1086C254.859 52.0029 250.896 44.555 245.071 38.7068C239.247 32.8586 231.823 28.8728 223.738 27.2533C215.653 25.6338 207.271 26.4534 199.651 29.6085C192.031 32.7636 185.515 38.1124 180.929 44.9786C176.342 51.8449 173.89 59.92 173.882 68.183C173.872 79.2567 178.249 89.8815 186.051 97.7226C193.853 105.564 204.442 109.98 215.491 110H215.529ZM215.529 92.8581C220.391 92.8657 225.146 91.4282 229.193 88.7274C233.24 86.0266 236.396 82.1838 238.264 77.685C240.131 73.1862 240.626 68.2333 239.685 63.4528C238.744 58.6723 236.409 54.2788 232.977 50.828C229.544 47.3771 225.168 45.0239 220.401 44.0658C215.634 43.1077 210.691 43.5879 206.196 45.4455C201.701 47.3032 197.857 50.4549 195.15 54.5022C192.443 58.5494 190.993 63.3104 190.986 68.183C190.981 71.4184 191.612 74.623 192.842 77.614C194.073 80.605 195.88 83.3237 198.159 85.615C200.438 87.9063 203.145 89.7253 206.125 90.968C209.106 92.2108 212.301 92.853 215.529 92.8581Z" fill="#888888"/>
<path fill-rule="evenodd" clip-rule="evenodd" d="M170.124 67.914V68.2215C170.124 77.6292 166.953 86.761 161.125 94.1359C155.297 101.511 147.154 106.696 138.017 108.851C128.88 111.007 119.284 110.005 110.786 106.009C102.288 102.013 95.3862 95.2566 91.1999 86.8363C87.0136 78.416 85.7883 68.8252 87.7228 59.6195C89.6572 50.4137 94.6379 42.1329 101.857 36.1199C109.076 30.1069 118.111 26.7145 127.495 26.4929C136.879 26.2712 146.063 29.2333 153.557 34.8987V8.30189C153.557 6.10009 154.43 3.98847 155.983 2.43157C157.536 0.87466 159.643 0 161.84 0C164.037 0 166.144 0.87466 167.698 2.43157C169.251 3.98847 170.124 6.10009 170.124 8.30189V67.914ZM128.438 92.8581C133.3 92.8809 138.059 91.4582 142.114 88.7701C146.169 86.082 149.338 82.2491 151.219 77.7561C153.101 73.2631 153.611 68.3119 152.685 63.5285C151.758 58.7451 149.438 54.3444 146.016 50.8828C142.594 47.4212 138.225 45.0543 133.461 44.0813C128.697 43.1084 123.753 43.573 119.252 45.4166C114.752 47.2602 110.898 50.3998 108.178 54.4385C105.458 58.4772 103.994 63.2336 103.971 68.1062C103.956 71.3415 104.577 74.5482 105.798 77.5431C107.019 80.5379 108.817 83.2624 111.089 85.5608C113.361 87.8592 116.063 89.6866 119.04 90.9387C122.016 92.1908 125.21 92.843 128.438 92.8581Z" fill="#888888"/>
<path fill-rule="evenodd" clip-rule="evenodd" d="M42.1133 109.923C50.358 109.923 58.4175 107.473 65.2727 102.882C72.1279 98.2915 77.4709 91.7666 80.626 84.1326C83.7811 76.4986 84.6066 68.0984 82.9982 59.9941C81.3897 51.8899 77.4195 44.4457 71.5897 38.6029C65.7598 32.76 58.3321 28.781 50.2458 27.169C42.1596 25.557 33.7779 26.3843 26.1608 29.5464C18.5438 32.7085 12.0333 38.0634 7.45282 44.9338C2.87232 51.8043 0.42749 59.8817 0.42749 68.1447C0.42749 79.225 4.81938 89.8516 12.637 97.6865C20.4546 105.522 31.0576 109.923 42.1133 109.923ZM41.7298 92.9351C46.5982 92.935 51.3569 91.4861 55.4027 88.7721C59.4484 86.0582 62.599 82.2013 64.4549 77.6906C66.3109 73.1799 66.7887 68.2184 65.8277 63.4352C64.8667 58.6521 62.5102 54.2626 59.057 50.8233C55.6037 47.384 51.2093 45.0498 46.4308 44.1166C41.6523 43.1834 36.7049 43.6933 32.2159 45.5816C27.7269 47.4699 23.8984 50.6515 21.2159 54.7232C18.5333 58.7948 17.1175 63.5731 17.1478 68.4522C17.1884 74.9595 19.7961 81.1865 24.4018 85.7736C29.0074 90.3607 35.2368 92.9352 41.7298 92.9351Z" fill="#875A7B"/>
</svg>
