<svg width="50" height="50" viewBox="0 0 50 50" fill="none" xmlns="http://www.w3.org/2000/svg">
<path d="M13.5 14.25C13.5469 12.3281 14.2031 10.7344 15.4688 9.46875C16.7344 8.20312 18.3281 7.54688 20.25 7.5C22.1719 7.54688 23.7656 8.20312 25.0312 9.46875C26.2969 10.7344 26.9531 12.3281 27 14.25V18.75H31.5C32.7656 18.7969 33.8203 19.2422 34.6641 20.0859C35.5078 20.9297 35.9531 21.9844 36 23.25H33.75C33.75 22.5938 33.5391 22.0547 33.1172 21.6328C32.6953 21.2109 32.1562 21 31.5 21H9C8.34375 21 7.80469 21.2109 7.38281 21.6328C6.96094 22.0547 6.75 22.5938 6.75 23.25V36.75C6.75 37.4062 6.96094 37.9453 7.38281 38.3672C7.80469 38.7891 8.34375 39 9 39H15.75V41.25H9C7.73438 41.2031 6.67969 40.7578 5.83594 39.9141C4.99219 39.0703 4.54688 38.0156 4.5 36.75V23.25C4.54688 21.9844 4.99219 20.9297 5.83594 20.0859C6.67969 19.2422 7.73438 18.7969 9 18.75H13.5V14.25ZM15.75 18.75H24.75V14.25C24.7031 12.9844 24.2578 11.9297 23.4141 11.0859C22.5703 10.2422 21.5156 9.79688 20.25 9.75C18.9844 9.79688 17.9297 10.2422 17.0859 11.0859C16.2422 11.9297 15.7969 12.9844 15.75 14.25V18.75ZM27 32.25C27.0469 33.5156 27.4922 34.5703 28.3359 35.4141C29.1797 36.2578 30.2344 36.7031 31.5 36.75C32.7656 36.7031 33.8203 36.2578 34.6641 35.4141C35.5078 34.5703 35.9531 33.5156 36 32.25V31.125C36.0469 30.4219 36.4219 30.0469 37.125 30C37.8281 30.0469 38.2031 30.4219 38.25 31.125V32.25C38.2031 34.1719 37.5469 35.7656 36.2812 37.0312C35.0156 38.2969 33.4219 38.9531 31.5 39C29.5781 38.9531 27.9844 38.2969 26.7188 37.0312C25.4531 35.7656 24.7969 34.1719 24.75 32.25V31.125C24.7969 30.4219 25.1719 30.0469 25.875 30C26.5781 30.0469 26.9531 30.4219 27 31.125V32.25ZM18 30C18.0469 28.7344 18.4922 27.6797 19.3359 26.8359C20.1797 25.9922 21.2344 25.5469 22.5 25.5H40.5C41.7656 25.5469 42.8203 25.9922 43.6641 26.8359C44.5078 27.6797 44.9531 28.7344 45 30V39C44.9531 40.2656 44.5078 41.3203 43.6641 42.1641C42.8203 43.0078 41.7656 43.4531 40.5 43.5H22.5C21.2344 43.4531 20.1797 43.0078 19.3359 42.1641C18.4922 41.3203 18.0469 40.2656 18 39V30ZM22.5 27.75C21.8438 27.75 21.3047 27.9609 20.8828 28.3828C20.4609 28.8047 20.25 29.3438 20.25 30V39C20.25 39.6562 20.4609 40.1953 20.8828 40.6172C21.3047 41.0391 21.8438 41.25 22.5 41.25H40.5C41.1562 41.25 41.6953 41.0391 42.1172 40.6172C42.5391 40.1953 42.75 39.6562 42.75 39V30C42.75 29.3438 42.5391 28.8047 42.1172 28.3828C41.6953 27.9609 41.1562 27.75 40.5 27.75H22.5Z" fill="#A90083"/>
</svg>
