<svg width="50" height="50" viewBox="0 0 50 50" fill="none" xmlns="http://www.w3.org/2000/svg">
<path d="M11.25 33.375C11.2969 32.6719 11.6719 32.2969 12.375 32.25H16.875C17.5781 32.2969 17.9531 32.6719 18 33.375C17.9531 34.0781 17.5781 34.4531 16.875 34.5H12.375C11.6719 34.4531 11.2969 34.0781 11.25 33.375ZM20.25 33.375C20.2969 32.6719 20.6719 32.2969 21.375 32.25H30.375C31.0781 32.2969 31.4531 32.6719 31.5 33.375C31.4531 34.0781 31.0781 34.4531 30.375 34.5H21.375C20.6719 34.4531 20.2969 34.0781 20.25 33.375ZM4.5 14.25C4.54688 12.9844 4.99219 11.9297 5.83594 11.0859C6.67969 10.2422 7.73438 9.79688 9 9.75H40.5C41.7656 9.79688 42.8203 10.2422 43.6641 11.0859C44.5078 11.9297 44.9531 12.9844 45 14.25V36.75C44.9531 38.0156 44.5078 39.0703 43.6641 39.9141C42.8203 40.7578 41.7656 41.2031 40.5 41.25H9C7.73438 41.2031 6.67969 40.7578 5.83594 39.9141C4.99219 39.0703 4.54688 38.0156 4.5 36.75V14.25ZM6.75 14.25V16.5H42.75V14.25C42.75 13.5938 42.5391 13.0547 42.1172 12.6328C41.6953 12.2109 41.1562 12 40.5 12H9C8.34375 12 7.80469 12.2109 7.38281 12.6328C6.96094 13.0547 6.75 13.5938 6.75 14.25ZM6.75 23.25H42.75V18.75H6.75V23.25ZM6.75 25.5V36.75C6.75 37.4062 6.96094 37.9453 7.38281 38.3672C7.80469 38.7891 8.34375 39 9 39H40.5C41.1562 39 41.6953 38.7891 42.1172 38.3672C42.5391 37.9453 42.75 37.4062 42.75 36.75V25.5H6.75Z" fill="#A90083"/>
</svg>
