<svg width="50" height="50" viewBox="0 0 50 50" fill="none" xmlns="http://www.w3.org/2000/svg">
<path d="M33.0469 9.75C34.9688 9.84375 36.3516 10.7344 37.1953 12.4219L40.1484 19.0312C40.3828 19.5938 40.5 20.2031 40.5 20.8594V36.75C40.4531 38.0156 40.0078 39.0703 39.1641 39.9141C38.3203 40.7578 37.2656 41.2031 36 41.25H13.5C12.2344 41.2031 11.1797 40.7578 10.3359 39.9141C9.49219 39.0703 9.04688 38.0156 9 36.75V20.8594C9 20.2031 9.14062 19.5938 9.42188 19.0312L12.3047 12.4219C13.1484 10.7344 14.5312 9.84375 16.4531 9.75H33.0469ZM33.0469 12H25.875V18.75H37.5469L35.1562 13.3359C34.7344 12.4922 34.0312 12.0469 33.0469 12ZM38.25 21H11.25V36.75C11.25 37.4062 11.4609 37.9453 11.8828 38.3672C12.3047 38.7891 12.8438 39 13.5 39H36C36.6562 39 37.1953 38.7891 37.6172 38.3672C38.0391 37.9453 38.25 37.4062 38.25 36.75V21ZM11.9531 18.75H23.625V12H16.4531C15.4688 12.0469 14.7656 12.4922 14.3438 13.3359L11.9531 18.75Z" fill="#A90083"/>
</svg>
