<svg width="50" height="50" viewBox="0 0 50 50" fill="none" xmlns="http://www.w3.org/2000/svg">
<path d="M38.5 14.25H7C6.34375 14.25 5.80469 14.4609 5.38281 14.8828C4.96094 15.3047 4.75 15.8438 4.75 16.5V34.5C4.75 35.1562 4.96094 35.6953 5.38281 36.1172C5.80469 36.5391 6.34375 36.75 7 36.75H26.2656L25.7031 39H7C5.73438 38.9531 4.67969 38.5078 3.83594 37.6641C2.99219 36.8203 2.54688 35.7656 2.5 34.5V16.5C2.54688 15.2344 2.99219 14.1797 3.83594 13.3359C4.67969 12.4922 5.73438 12.0469 7 12H38.5C39.7656 12.0469 40.8203 12.4922 41.6641 13.3359C42.5078 14.1797 42.9531 15.2344 43 16.5V21C42.2031 21 41.4531 21.1406 40.75 21.4219V16.5C40.75 15.8438 40.5391 15.3047 40.1172 14.8828C39.6953 14.4609 39.1562 14.25 38.5 14.25ZM20.5 28.875C20.5469 28.1719 20.9219 27.7969 21.625 27.75H28.375C29.0781 27.7969 29.4531 28.1719 29.5 28.875C29.4531 29.5781 29.0781 29.9531 28.375 30H21.625C20.9219 29.9531 20.5469 29.5781 20.5 28.875ZM35.125 21C35.8281 21.0469 36.2031 21.4219 36.25 22.125C36.2031 22.8281 35.8281 23.2031 35.125 23.25H21.625C20.9219 23.2031 20.5469 22.8281 20.5 22.125C20.5469 21.4219 20.9219 21.0469 21.625 21H35.125ZM12.5547 17.625C13.2578 17.6719 13.6328 18.0469 13.6797 18.75V19.4531C14.2891 19.5469 14.875 19.6641 15.4375 19.8047C16.0938 20.0391 16.375 20.4844 16.2812 21.1406C16 21.7969 15.5312 22.0781 14.875 21.9844C14.6875 21.9375 14.4297 21.8672 14.1016 21.7734C13.7734 21.7266 13.5156 21.6797 13.3281 21.6328C12.3906 21.4922 11.6641 21.5625 11.1484 21.8438C10.6328 22.0781 10.375 22.3125 10.375 22.5469C10.375 22.875 10.3984 23.0625 10.4453 23.1094C10.4922 23.25 10.6094 23.3906 10.7969 23.5312C11.2656 23.8125 11.9922 24.0938 12.9766 24.375C13.9609 24.6094 14.8984 25.0078 15.7891 25.5703C16.2578 25.8516 16.6328 26.2734 16.9141 26.8359C17.1484 27.4453 17.1953 28.1016 17.0547 28.8047C16.7734 29.9766 16.0938 30.7969 15.0156 31.2656C14.5938 31.4531 14.1719 31.5703 13.75 31.6172V32.25C13.7031 32.9531 13.3281 33.3281 12.625 33.375C11.9219 33.3281 11.5469 32.9531 11.5 32.25V31.5469C10.7031 31.4062 9.95312 31.1953 9.25 30.9141C9.10938 30.8672 8.99219 30.8203 8.89844 30.7734C8.24219 30.4922 8.00781 30.0234 8.19531 29.3672C8.47656 28.7578 8.94531 28.5234 9.60156 28.6641C9.64844 28.7109 9.74219 28.7344 9.88281 28.7344C9.92969 28.7812 9.97656 28.8047 10.0234 28.8047C10.0234 28.8047 10.0469 28.8047 10.0938 28.8047C10.7969 29.0859 11.4062 29.25 11.9219 29.2969C12.9062 29.4844 13.6328 29.4609 14.1016 29.2266C14.5703 29.0391 14.8281 28.7578 14.875 28.3828C14.875 28.0547 14.8516 27.8438 14.8047 27.75C14.7578 27.6562 14.6406 27.5156 14.4531 27.3281C13.9844 27.0469 13.2812 26.7656 12.3438 26.4844H12.2031C12.1562 26.4375 12.1328 26.4141 12.1328 26.4141C11.2422 26.1797 10.375 25.8281 9.53125 25.3594C9.0625 25.0781 8.6875 24.6562 8.40625 24.0938C8.125 23.5312 8.05469 22.9219 8.19531 22.2656C8.47656 21.0469 9.15625 20.2266 10.2344 19.8047C10.6094 19.6172 11.0312 19.4766 11.5 19.3828V18.75C11.5469 18.0469 11.9219 17.6719 12.625 17.625H12.5547ZM40.3281 24.4453C40.9844 23.7891 41.7578 23.4609 42.6484 23.4609C43.5859 23.4609 44.3828 23.7891 45.0391 24.4453L46.3047 25.7109C46.9609 26.4141 47.2891 27.2109 47.2891 28.1016C47.2891 28.9922 46.9609 29.7891 46.3047 30.4922L35.4766 41.25C35.0547 41.7188 34.5391 42 33.9297 42.0938L28.6562 43.5C28.2344 43.5938 27.8828 43.5 27.6016 43.2188C27.3203 42.8906 27.2266 42.5156 27.3203 42.0938L28.5859 36.8203C28.7266 36.2109 29.0312 35.6953 29.5 35.2734L40.3281 24.4453ZM43.4922 26.0625C42.9297 25.6406 42.3906 25.6406 41.875 26.0625L40.1172 27.8203L42.9297 30.6328L44.6875 28.8047C45.1562 28.3359 45.1562 27.8203 44.6875 27.2578L43.4922 26.0625ZM30.7656 37.3828L29.8516 40.8281L33.3672 39.9844C33.5547 39.9375 33.7188 39.8438 33.8594 39.7031L41.3828 32.1797L38.5703 29.4375L31.1172 36.8906C30.9297 37.0312 30.8125 37.1953 30.7656 37.3828Z" fill="#A90083"/>
</svg>
